<svg id="Слой_1" data-name="Слой 1" xmlns="http://www.w3.org/2000/svg" viewBox="0 0 11.24628 10.12483">
  <defs>
    <style>
      .cls-1 {
        fill: #fff;
        stroke: #fff;
        stroke-width: 0.56231px;
      }
    </style>
  </defs>
  <path class="cls-1" d="M15.342,7.60191c0,1.65722-1.1691,3.20041-2.48188,4.35613a12.39336,12.39336,0,0,1-1.86031,1.35282,6.82084,6.82084,0,0,1-.69159.36123,2.234,2.234,0,0,1-.22554.08693.54939.54939,0,0,1-.08187.02047L10,13.7796l-.00079-.00011a.5501.5501,0,0,1-.08186-.02047,2.23591,2.23591,0,0,1-.22557-.08693,6.82826,6.82826,0,0,1-.69159-.36123A12.39275,12.39275,0,0,1,7.13991,11.958C5.82713,10.80232,4.658,9.25913,4.658,7.60191a3.31624,3.31624,0,0,1,1.77847-3.261c.93853-.35239,2.20372.02238,3.26,1.85989l.24375-.14012-.24375.14012a.341.341,0,0,0,.60876-.03811A3.24382,3.24382,0,0,1,11.719,4.446a2.00889,2.00889,0,0,1,1.62-.10229A3.34687,3.34687,0,0,1,15.342,7.60191Z" transform="translate(-4.37686 -3.93924)"/>
</svg>
