<?xml version="1.0" standalone="no"?>
<!DOCTYPE svg PUBLIC "-//W3C//DTD SVG 20010904//EN"
 "http://www.w3.org/TR/2001/REC-SVG-20010904/DTD/svg10.dtd">
<svg version="1.0" xmlns="http://www.w3.org/2000/svg"
 width="1346.000000pt" height="1346.000000pt" viewBox="0 0 1346.000000 1346.000000"
 preserveAspectRatio="xMidYMid meet">
<metadata>
Created by potrace 1.14, written by Peter Selinger 2001-2017
</metadata>
<g transform="translate(0.000000,1346.000000) scale(0.100000,-0.100000)"
fill="#000000" stroke="none">
<path d="M0 6730 l0 -6730 6730 0 6730 0 0 6730 0 6730 -6730 0 -6730 0 0
-6730z m2920 570 c0 -18 7 -20 60 -20 57 0 60 -1 60 -25 0 -22 4 -25 40 -25
33 0 40 -3 40 -20 0 -17 7 -20 45 -20 38 0 45 -3 45 -20 0 -13 7 -20 20 -20
13 0 20 -7 20 -20 0 -13 7 -20 20 -20 13 0 20 -7 20 -20 0 -13 7 -20 20 -20
13 0 20 -7 20 -20 0 -13 7 -20 20 -20 17 0 20 -7 20 -45 0 -41 2 -45 25 -45
24 0 25 -3 25 -60 0 -53 2 -60 20 -60 19 0 20 -7 20 -145 0 -138 -1 -145 -20
-145 -17 0 -20 -7 -20 -45 0 -41 -2 -45 -25 -45 -22 0 -25 -4 -25 -40 0 -33
-3 -40 -20 -40 -13 0 -20 -7 -20 -20 0 -13 -7 -20 -20 -20 -17 0 -20 -7 -20
-45 0 -38 -3 -45 -20 -45 -13 0 -20 -7 -20 -20 0 -17 -7 -20 -40 -20 -33 0
-40 -3 -40 -20 0 -17 -7 -20 -45 -20 -38 0 -45 -3 -45 -20 0 -17 -7 -20 -40
-20 -33 0 -40 -3 -40 -20 0 -19 -7 -20 -105 -20 -98 0 -105 -1 -105 -20 0 -19
-7 -20 -230 -20 -223 0 -230 1 -230 20 0 19 -7 20 -105 20 -98 0 -105 1 -105
20 0 18 -7 20 -60 20 -53 0 -60 2 -60 20 0 17 -7 20 -40 20 -33 0 -40 3 -40
20 0 15 -7 20 -25 20 -18 0 -25 5 -25 20 0 13 -7 20 -20 20 -15 0 -20 7 -20
25 0 18 -5 25 -20 25 -13 0 -20 7 -20 20 0 13 -7 20 -20 20 -13 0 -20 7 -20
20 0 13 -7 20 -20 20 -17 0 -20 7 -20 40 0 33 -3 40 -20 40 -19 0 -20 7 -20
250 0 243 1 250 20 250 17 0 20 7 20 45 0 38 3 45 20 45 13 0 20 7 20 20 0 13
7 20 20 20 13 0 20 7 20 20 0 13 7 20 20 20 13 0 20 7 20 20 0 13 7 20 20 20
13 0 20 7 20 20 0 17 7 20 45 20 38 0 45 3 45 20 0 17 7 20 40 20 36 0 40 3
40 25 0 25 1 25 85 25 78 0 85 2 85 20 0 20 7 20 355 20 348 0 355 0 355 -20z
m1910 0 c0 -18 7 -20 65 -20 63 0 65 -1 65 -25 0 -22 4 -25 40 -25 33 0 40 -3
40 -20 0 -17 7 -20 40 -20 33 0 40 -3 40 -20 0 -15 7 -20 25 -20 18 0 25 -5
25 -20 0 -13 7 -20 20 -20 13 0 20 -7 20 -20 0 -13 7 -20 20 -20 13 0 20 -7
20 -20 0 -13 7 -20 20 -20 17 0 20 -7 20 -45 0 -38 3 -45 20 -45 17 0 20 -7
20 -40 0 -33 3 -40 20 -40 19 0 20 -7 20 -165 0 -158 -1 -165 -20 -165 -18 0
-20 -7 -20 -65 0 -58 -2 -65 -20 -65 -13 0 -20 -7 -20 -20 0 -13 -7 -20 -20
-20 -17 0 -20 -7 -20 -40 0 -33 -3 -40 -20 -40 -15 0 -20 -7 -20 -25 0 -18 -5
-25 -20 -25 -13 0 -20 -7 -20 -20 0 -17 -7 -20 -45 -20 -38 0 -45 -3 -45 -20
0 -17 -7 -20 -40 -20 -33 0 -40 -3 -40 -20 0 -17 -7 -20 -40 -20 -33 0 -40 -3
-40 -20 0 -19 -7 -20 -105 -20 -98 0 -105 -1 -105 -20 0 -19 -7 -20 -210 -20
-203 0 -210 1 -210 20 0 19 -7 20 -125 20 -118 0 -125 1 -125 20 0 18 -7 20
-60 20 -53 0 -60 2 -60 20 0 17 -7 20 -45 20 -38 0 -45 3 -45 20 0 13 -7 20
-20 20 -13 0 -20 7 -20 20 0 13 -7 20 -20 20 -15 0 -20 7 -20 25 0 18 -5 25
-20 25 -13 0 -20 7 -20 20 0 13 -7 20 -20 20 -17 0 -20 7 -20 40 0 36 -2 40
-25 40 -24 0 -25 2 -25 65 0 58 -2 65 -20 65 -19 0 -20 7 -20 165 0 158 1 165
20 165 18 0 20 7 20 60 0 57 1 60 25 60 23 0 25 4 25 45 0 38 3 45 20 45 13 0
20 7 20 20 0 13 7 20 20 20 13 0 20 7 20 20 0 13 7 20 20 20 13 0 20 7 20 20
0 17 7 20 40 20 33 0 40 3 40 20 0 17 7 20 45 20 41 0 45 2 45 25 0 25 1 25
80 25 73 0 80 2 80 20 0 20 7 20 355 20 348 0 355 0 355 -20z m1090 -440 l0
-460 435 0 c428 0 435 0 435 -20 0 -13 7 -20 20 -20 13 0 20 -7 20 -20 0 -13
-7 -20 -20 -20 -13 0 -20 -7 -20 -20 0 -13 -7 -20 -20 -20 -15 0 -20 -7 -20
-25 0 -18 -5 -25 -20 -25 -17 0 -20 -7 -20 -40 0 -33 -3 -40 -20 -40 -13 0
-20 -7 -20 -20 0 -15 -7 -20 -25 -20 -18 0 -25 -5 -25 -20 0 -20 -7 -20 -540
-20 l-540 0 0 625 0 625 190 0 190 0 0 -460z m3000 440 c0 -17 7 -20 40 -20
36 0 40 -2 40 -25 0 -18 5 -25 20 -25 13 0 20 -7 20 -20 0 -13 7 -20 20 -20
17 0 20 -7 20 -40 0 -33 3 -40 20 -40 13 0 20 -7 20 -20 0 -15 7 -20 25 -20
18 0 25 -5 25 -20 0 -13 7 -20 20 -20 17 0 20 -7 20 -45 0 -38 3 -45 20 -45
13 0 20 -7 20 -20 0 -13 7 -20 20 -20 17 0 20 -7 20 -40 0 -33 3 -40 20 -40
13 0 20 -7 20 -20 0 -13 7 -20 20 -20 17 0 20 -7 20 -45 0 -41 2 -45 25 -45
18 0 25 -5 25 -20 0 -13 7 -20 20 -20 17 0 20 -7 20 -40 0 -33 3 -40 20 -40
13 0 20 -7 20 -20 0 -13 7 -20 20 -20 17 0 20 -7 20 -45 0 -38 3 -45 20 -45
13 0 20 -7 20 -20 0 -13 7 -20 20 -20 17 0 20 -7 20 -40 0 -36 3 -40 25 -40
18 0 25 -5 25 -20 0 -13 7 -20 20 -20 17 0 20 -7 20 -45 0 -38 3 -45 20 -45
13 0 20 -7 20 -20 0 -13 7 -20 20 -20 18 0 20 -7 20 -60 l0 -60 -665 0 c-658
0 -665 0 -665 20 0 13 -7 20 -20 20 -13 0 -20 7 -20 20 0 13 7 20 20 20 13 0
20 7 20 20 0 13 7 20 20 20 13 0 20 7 20 20 0 13 7 20 20 20 17 0 20 7 20 45
0 38 3 45 20 45 13 0 20 7 20 20 0 13 7 20 20 20 13 0 20 7 20 20 0 19 7 20
250 20 l250 0 0 40 c0 33 -3 40 -20 40 -17 0 -20 7 -20 45 0 38 -3 45 -20 45
-13 0 -20 7 -20 20 0 13 -7 20 -20 20 -17 0 -20 7 -20 40 0 33 -3 40 -20 40
-13 0 -20 7 -20 20 0 13 -7 20 -20 20 -17 0 -20 7 -20 45 0 41 -2 45 -25 45
-18 0 -25 5 -25 20 0 13 -7 20 -20 20 -13 0 -20 7 -20 20 0 13 -7 20 -20 20
-17 0 -20 -7 -20 -40 0 -33 -3 -40 -20 -40 -15 0 -20 -7 -20 -25 0 -18 -5 -25
-20 -25 -17 0 -20 -7 -20 -40 0 -33 -3 -40 -20 -40 -13 0 -20 -7 -20 -20 0
-15 -7 -20 -25 -20 -22 0 -25 -4 -25 -40 0 -33 -3 -40 -20 -40 -15 0 -20 -7
-20 -25 0 -18 -5 -25 -20 -25 -17 0 -20 -7 -20 -40 0 -33 -3 -40 -20 -40 -13
0 -20 -7 -20 -20 0 -13 -7 -20 -20 -20 -13 0 -20 -7 -20 -20 0 -13 -7 -20 -20
-20 -17 0 -20 -7 -20 -45 0 -41 -2 -45 -25 -45 -18 0 -25 -5 -25 -20 0 -13 -7
-20 -20 -20 -17 0 -20 -7 -20 -40 0 -33 -3 -40 -20 -40 -13 0 -20 -7 -20 -20
0 -17 -7 -20 -40 -20 -33 0 -40 -3 -40 -20 0 -19 -7 -20 -190 -20 l-190 0 0
40 c0 33 3 40 20 40 13 0 20 7 20 20 0 15 7 20 25 20 23 0 25 4 25 40 0 33 3
40 20 40 17 0 20 7 20 45 0 38 3 45 20 45 13 0 20 7 20 20 0 13 7 20 20 20 13
0 20 7 20 20 0 13 7 20 20 20 17 0 20 7 20 40 0 33 3 40 20 40 15 0 20 7 20
25 0 20 5 25 25 25 23 0 25 4 25 40 0 33 3 40 20 40 13 0 20 7 20 20 0 13 7
20 20 20 17 0 20 7 20 40 0 33 3 40 20 40 15 0 20 7 20 25 0 18 5 25 20 25 17
0 20 7 20 40 0 33 3 40 20 40 13 0 20 7 20 20 0 15 7 20 25 20 18 0 25 5 25
20 0 13 7 20 20 20 17 0 20 7 20 45 0 38 3 45 20 45 13 0 20 7 20 20 0 13 7
20 20 20 17 0 20 7 20 40 0 33 3 40 20 40 13 0 20 7 20 20 0 13 7 20 20 20 13
0 20 7 20 20 0 15 7 20 25 20 20 0 25 5 25 25 0 23 4 25 40 25 33 0 40 3 40
20 0 18 7 20 85 20 78 0 85 -2 85 -20z m2330 -45 c0 -24 3 -25 60 -25 53 0 60
-2 60 -20 0 -17 7 -20 45 -20 38 0 45 -3 45 -20 0 -13 7 -20 20 -20 13 0 20
-7 20 -20 0 -13 7 -20 20 -20 17 0 20 -7 20 -40 0 -33 3 -40 20 -40 18 0 20
-7 20 -85 0 -78 2 -85 20 -85 13 0 20 -7 20 -20 0 -13 -7 -20 -20 -20 -18 0
-20 -7 -20 -85 0 -78 -2 -85 -20 -85 -13 0 -20 -7 -20 -20 0 -13 -7 -20 -20
-20 -17 0 -20 -7 -20 -40 0 -33 -3 -40 -20 -40 -15 0 -20 -7 -20 -25 0 -23 -4
-25 -45 -25 -38 0 -45 -3 -45 -20 0 -13 -7 -20 -20 -20 -13 0 -20 -7 -20 -20
0 -13 7 -20 20 -20 13 0 20 -7 20 -20 0 -15 7 -20 25 -20 18 0 25 -5 25 -20 0
-13 7 -20 20 -20 13 0 20 -7 20 -20 0 -13 7 -20 20 -20 15 0 20 -7 20 -25 0
-18 5 -25 20 -25 13 0 20 -7 20 -20 0 -13 7 -20 20 -20 13 0 20 -7 20 -20 0
-13 7 -20 20 -20 18 0 20 -7 20 -60 l0 -60 -185 0 c-178 0 -185 1 -185 20 0
18 -7 20 -65 20 l-65 0 0 40 c0 33 -3 40 -20 40 -13 0 -20 7 -20 20 0 13 -7
20 -20 20 -13 0 -20 7 -20 20 0 13 -7 20 -20 20 -17 0 -20 7 -20 45 0 38 -3
45 -20 45 -13 0 -20 7 -20 20 0 20 -7 20 -315 20 l-315 0 0 -145 c0 -138 -1
-145 -20 -145 -13 0 -20 -7 -20 -20 0 -19 -7 -20 -145 -20 -138 0 -145 1 -145
20 0 13 -7 20 -20 20 -20 0 -20 7 -20 310 l0 310 580 0 c573 0 580 0 580 20 0
15 7 20 25 20 20 0 25 5 25 25 0 18 5 25 20 25 18 0 20 7 20 60 0 53 -2 60
-20 60 -13 0 -20 7 -20 20 0 20 -7 20 -585 20 l-585 0 0 65 c0 58 2 65 20 65
13 0 20 7 20 20 0 13 7 20 20 20 13 0 20 7 20 20 0 13 7 20 20 20 13 0 20 7
20 20 0 15 7 20 25 20 18 0 25 5 25 20 0 13 7 20 20 20 15 0 20 7 20 25 l0 25
520 0 520 0 0 -25z m1620 0 c0 -24 2 -25 65 -25 58 0 65 -2 65 -20 0 -17 7
-20 40 -20 33 0 40 -3 40 -20 0 -13 7 -20 20 -20 13 0 20 -7 20 -20 0 -15 7
-20 25 -20 18 0 25 -5 25 -20 0 -13 7 -20 20 -20 13 0 20 -7 20 -20 0 -13 7
-20 20 -20 15 0 20 -7 20 -25 0 -18 5 -25 20 -25 17 0 20 -7 20 -40 0 -33 3
-40 20 -40 17 0 20 -7 20 -40 0 -33 3 -40 20 -40 19 0 20 -7 20 -125 0 -118
-1 -125 -20 -125 -18 0 -20 -7 -20 -65 0 -58 -2 -65 -20 -65 -17 0 -20 -7 -20
-40 0 -33 -3 -40 -20 -40 -13 0 -20 -7 -20 -20 0 -13 -7 -20 -20 -20 -13 0
-20 -7 -20 -20 0 -13 -7 -20 -20 -20 -15 0 -20 -7 -20 -25 0 -20 -5 -25 -25
-25 -18 0 -25 -5 -25 -20 0 -13 -7 -20 -20 -20 -13 0 -20 -7 -20 -20 0 -17 -7
-20 -40 -20 -33 0 -40 -3 -40 -20 0 -17 -7 -20 -40 -20 -33 0 -40 -3 -40 -20
0 -19 -7 -20 -105 -20 -98 0 -105 -1 -105 -20 0 -20 -7 -20 -440 -20 l-440 0
0 125 c0 118 -1 125 -20 125 -19 0 -20 7 -20 225 0 218 1 225 20 225 17 0 20
7 20 45 l0 45 190 0 190 0 0 -210 c0 -203 1 -210 20 -210 13 0 20 -7 20 -20 0
-19 7 -20 230 -20 223 0 230 1 230 20 0 18 7 20 60 20 53 0 60 2 60 20 0 17 7
20 45 20 l45 0 0 45 c0 38 3 45 20 45 18 0 20 7 20 60 0 53 2 60 20 60 13 0
20 7 20 20 0 13 -7 20 -20 20 -18 0 -20 7 -20 65 0 58 -2 65 -20 65 -13 0 -20
7 -20 20 0 15 -7 20 -25 20 -18 0 -25 5 -25 20 0 17 -7 20 -40 20 -33 0 -40 3
-40 20 0 20 -7 20 -460 20 -453 0 -460 0 -460 20 0 13 -7 20 -20 20 -15 0 -20
7 -20 25 0 18 5 25 20 25 13 0 20 7 20 20 0 15 7 20 25 20 23 0 25 4 25 40 0
33 3 40 20 40 13 0 20 7 20 20 0 13 7 20 20 20 13 0 20 7 20 20 0 13 7 20 20
20 15 0 20 7 20 25 l0 25 415 0 415 0 0 -25z"/>
<path d="M2460 7005 l0 -25 -125 0 c-118 0 -125 -1 -125 -20 0 -17 -7 -20 -45
-20 -38 0 -45 -3 -45 -20 0 -13 -7 -20 -20 -20 -17 0 -20 -7 -20 -40 0 -33 -3
-40 -20 -40 -19 0 -20 -7 -20 -125 0 -118 1 -125 20 -125 17 0 20 -7 20 -45 0
-38 3 -45 20 -45 13 0 20 -7 20 -20 0 -17 7 -20 45 -20 38 0 45 -3 45 -20 0
-18 7 -20 80 -20 73 0 80 -2 80 -20 0 -19 7 -20 170 -20 163 0 170 1 170 20 0
19 7 20 105 20 98 0 105 1 105 20 0 13 7 20 20 20 13 0 20 7 20 20 0 13 7 20
20 20 15 0 20 7 20 25 0 18 5 25 20 25 19 0 20 7 20 165 0 158 -1 165 -20 165
-13 0 -20 7 -20 20 0 13 -7 20 -20 20 -13 0 -20 7 -20 20 0 17 -7 20 -45 20
-38 0 -45 3 -45 20 0 19 -7 20 -125 20 l-125 0 0 25 c0 25 -1 25 -80 25 -79 0
-80 0 -80 -25z"/>
<path d="M4460 7005 l0 -25 -170 0 c-163 0 -170 -1 -170 -20 0 -17 -7 -20 -40
-20 l-40 0 0 -40 c0 -33 -3 -40 -20 -40 -13 0 -20 -7 -20 -20 0 -13 -7 -20
-20 -20 -19 0 -20 -7 -20 -125 0 -118 1 -125 20 -125 17 0 20 -7 20 -45 0 -38
3 -45 20 -45 13 0 20 -7 20 -20 0 -17 7 -20 40 -20 33 0 40 -3 40 -20 0 -18 7
-20 85 -20 78 0 85 -2 85 -20 0 -19 7 -20 190 -20 183 0 190 1 190 20 0 18 7
20 80 20 73 0 80 2 80 20 0 13 7 20 20 20 13 0 20 7 20 20 0 15 7 20 25 20 20
0 25 5 25 25 0 18 5 25 20 25 18 0 20 7 20 60 0 53 2 60 20 60 17 0 20 7 20
40 0 33 -3 40 -20 40 -18 0 -20 7 -20 65 0 58 -2 65 -20 65 -13 0 -20 7 -20
20 0 15 -7 20 -25 20 -18 0 -25 5 -25 20 0 17 -7 20 -40 20 -33 0 -40 3 -40
20 0 19 -7 20 -145 20 l-145 0 0 25 c0 18 -5 25 -20 25 -15 0 -20 -7 -20 -25z"/>
</g>
</svg>
