<svg width="20" height="18" viewBox="0 0 20 18" fill="none" xmlns="http://www.w3.org/2000/svg">
<path d="M19.5 6.51361C19.5 9.46074 17.4209 12.2051 15.0863 14.2604C13.9315 15.277 12.7424 16.0998 11.778 16.6662C11.2956 16.9496 10.8751 17.1654 10.5481 17.3086C10.3843 17.3804 10.25 17.4312 10.147 17.4632C10.0564 17.4914 10.0117 17.498 10.0014 17.4996C10.0008 17.4996 10.0004 17.4997 10 17.4998C9.99964 17.4997 9.99917 17.4996 9.99859 17.4996C9.98831 17.498 9.94364 17.4914 9.85302 17.4632C9.75002 17.4312 9.6157 17.3804 9.45188 17.3086C9.12492 17.1654 8.70444 16.9496 8.22198 16.6662C7.25757 16.0998 6.0685 15.277 4.91372 14.2604C2.57912 12.2051 0.5 9.46074 0.5 6.51361C0.5 3.50794 1.9299 1.36493 3.66277 0.714289C5.33183 0.0876064 7.5818 0.754078 9.4602 4.02185L9.89368 3.77267L9.4602 4.02185C9.71033 4.45699 10.3513 4.41043 10.5428 3.95407C11.2177 2.34545 12.1223 1.38439 13.057 0.901145C13.9881 0.419798 14.9952 0.387657 15.938 0.71925C17.8361 1.38682 19.5 3.55443 19.5 6.51361Z" stroke="white"/>
</svg>
